<?xml version="1.0" standalone="no"?>
<!DOCTYPE svg PUBLIC "-//W3C//DTD SVG 20010904//EN"
 "http://www.w3.org/TR/2001/REC-SVG-20010904/DTD/svg10.dtd">
<svg version="1.0" xmlns="http://www.w3.org/2000/svg"
 width="392.000000pt" height="131.000000pt" viewBox="0 0 392.000000 131.000000"
 preserveAspectRatio="xMidYMid meet">

<g transform="translate(0.000000,131.000000) scale(0.100000,-0.100000)"
fill="#000000" stroke="none">
<path d="M2160 860 c0 -66 -2 -120 -4 -120 -2 0 -19 15 -39 34 -68 63 -168 68
-237 9 -78 -65 -99 -196 -47 -286 67 -113 202 -138 291 -54 l35 33 3 -29 c3
-26 32 -60 40 -47 2 3 2 134 0 293 -3 277 -4 287 -22 287 -19 0 -20 -8 -20
-120z m-85 -93 c63 -36 85 -77 85 -161 0 -86 -20 -126 -79 -156 -72 -36 -142
-22 -195 40 -71 85 -51 214 43 277 43 29 94 29 146 0z"/>
<path d="M1480 818 c-110 -32 -173 -159 -139 -281 15 -54 84 -122 139 -137
130 -35 253 67 253 208 0 142 -127 247 -253 210z m117 -44 c98 -47 127 -190
57 -281 -33 -43 -73 -63 -126 -63 -136 0 -210 194 -115 299 55 60 118 76 184
45z"/>
<path d="M2455 821 c-46 -11 -70 -27 -109 -72 -91 -107 -57 -273 71 -335 62
-31 115 -29 182 6 37 18 71 54 71 72 0 17 -30 6 -58 -21 -38 -38 -99 -55 -150
-42 -56 16 -122 91 -122 140 0 20 5 21 180 21 l180 0 0 33 c0 47 -43 130 -81
160 -31 23 -99 48 -124 46 -5 -1 -23 -4 -40 -8z m115 -46 c40 -20 80 -76 87
-119 l6 -36 -166 0 -165 0 8 37 c24 104 141 164 230 118z"/>
<path d="M1085 720 c-99 -62 -160 -105 -160 -115 0 -10 61 -53 163 -115 145
-88 162 -97 162 -77 0 18 -27 39 -135 106 -74 46 -135 84 -135 86 0 2 61 41
135 87 108 67 135 87 135 106 0 12 -1 22 -2 21 -2 0 -75 -45 -163 -99z"/>
</g>
</svg>
