<?xml version="1.0" standalone="no"?>
<!DOCTYPE svg PUBLIC "-//W3C//DTD SVG 20010904//EN"
 "http://www.w3.org/TR/2001/REC-SVG-20010904/DTD/svg10.dtd">
<svg version="1.0" xmlns="http://www.w3.org/2000/svg"
 width="1024.000000pt" height="949.000000pt" viewBox="0 0 1024.000000 949.000000"
 preserveAspectRatio="xMidYMid meet">

<g transform="translate(0.000000,949.000000) scale(0.100000,-0.100000)"
fill="#000000" stroke="none">
<path d="M6470 8410 c-30 -10 -63 -19 -74 -19 -10 -1 -35 -11 -55 -23 -32 -20
-50 -23 -166 -23 -113 -1 -141 -5 -214 -29 -46 -15 -93 -33 -105 -41 -11 -7
-57 -28 -101 -46 -78 -32 -177 -82 -203 -102 -7 -6 -32 -20 -56 -31 -46 -23
-72 -41 -179 -131 -40 -33 -95 -78 -122 -100 -64 -51 -121 -110 -163 -166 -47
-63 -203 -282 -229 -321 -43 -66 -234 -468 -267 -563 -17 -47 -27 -130 -36
-280 -5 -88 -19 -221 -30 -295 -12 -74 -25 -173 -30 -220 -5 -47 -13 -103 -19
-124 -5 -22 -7 -44 -5 -48 3 -5 1 -14 -4 -21 -13 -16 -32 -132 -32 -193 1 -61
9 -48 47 67 16 49 28 76 30 64 2 -12 13 -27 24 -34 17 -10 20 -10 13 1 -6 9
-3 9 10 -1 17 -14 17 -15 0 -28 -17 -13 -17 -14 4 -35 19 -19 22 -20 22 -5 0
9 4 17 9 17 5 0 6 -12 1 -27 -5 -16 -13 -44 -19 -64 -24 -79 -7 -127 59 -162
85 -44 207 -60 218 -28 3 9 0 11 -7 7 -7 -5 -29 8 -51 28 -22 20 -45 36 -51
36 -6 0 -24 9 -40 21 -24 17 -29 27 -29 64 0 24 4 47 10 50 5 3 29 -7 52 -23
41 -27 98 -47 98 -33 0 4 -25 21 -55 39 -62 37 -81 58 -44 49 23 -6 24 -3 25
39 1 53 27 85 71 88 16 2 35 6 42 11 10 6 11 -2 5 -36 -11 -60 -8 -93 12 -135
25 -52 57 -64 174 -64 91 0 100 2 100 19 0 10 7 24 15 31 8 7 15 21 15 31 0
30 17 31 23 1 13 -66 13 -67 -15 -70 -37 -4 -35 -18 3 -26 60 -12 79 -8 79 17
0 57 -23 101 -83 160 -89 86 -93 90 -122 90 -15 0 -29 6 -32 14 -3 8 -13 11
-24 8 -11 -4 -19 -2 -19 4 0 5 -17 13 -37 17 -21 3 -48 16 -60 27 -21 18 -23
19 -23 3 0 -10 -5 -14 -11 -10 -14 8 -48 84 -49 107 -1 65 317 -84 336 -158 3
-14 10 -23 14 -20 4 3 11 -6 14 -20 4 -14 11 -25 16 -25 6 0 10 -4 10 -10 0
-5 15 -26 34 -46 44 -47 71 -143 62 -220 -8 -66 -123 -295 -224 -444 -35 -52
-89 -147 -120 -210 l-57 -115 2 -188 c2 -173 3 -189 23 -217 18 -25 28 -30 61
-30 22 0 39 -5 39 -11 0 -7 12 -9 34 -5 18 4 45 2 58 -3 14 -5 29 -6 34 -1 5
4 27 10 49 13 22 3 60 10 84 15 36 8 62 5 144 -15 113 -28 136 -26 230 16 121
55 161 115 147 221 -10 71 -28 116 -40 104 -6 -6 -5 -33 2 -71 19 -105 -15
-177 -96 -200 -46 -14 -61 -7 -106 55 -37 51 -76 72 -133 72 -59 0 -102 -16
-117 -45 -16 -31 -7 -43 28 -37 16 2 43 -3 60 -12 17 -9 48 -20 68 -24 49 -10
55 -29 11 -37 -27 -5 -43 -1 -73 17 -30 19 -56 25 -114 27 -82 3 -91 6 -85 24
6 15 -62 60 -81 53 -8 -3 -14 -1 -14 5 0 6 -6 9 -14 6 -8 -3 -17 1 -20 9 -3 8
-11 14 -18 14 -17 0 -63 75 -77 125 -16 58 -13 135 7 175 19 39 75 124 103
155 45 51 129 202 159 286 19 52 47 117 62 144 93 162 109 227 85 351 -11 53
-29 109 -47 141 -28 48 -46 109 -54 172 -8 69 -60 126 -233 254 -88 65 -112
86 -193 172 -47 50 -102 102 -122 117 -21 15 -38 35 -38 44 0 10 -5 14 -15 10
-10 -3 -15 1 -15 11 0 22 -13 8 -27 -30 -17 -48 -15 -8 3 54 42 140 174 384
209 384 20 0 54 43 55 68 0 9 5 17 10 17 6 0 10 6 10 14 0 8 3 16 8 18 4 2 29
30 56 63 91 111 151 166 236 219 124 78 269 124 413 133 56 4 104 12 123 23
26 13 46 15 114 8 45 -4 90 -9 99 -10 11 -2 15 4 14 20 -2 13 3 22 11 22 8 0
27 5 43 12 15 6 38 10 51 9 29 -3 35 15 23 67 -10 46 0 54 35 27 26 -20 34
-19 34 6 0 21 1 21 20 -4 11 -14 20 -30 20 -35 0 -6 14 -24 30 -40 17 -17 30
-38 30 -46 0 -9 9 -25 20 -36 17 -17 21 -17 34 -5 19 20 23 19 29 -7 l6 -23
21 23 c26 28 28 28 23 -3 -4 -20 -2 -24 16 -20 12 2 25 6 30 10 5 3 13 1 16
-5 4 -7 12 -7 18 -2 17 12 155 -3 212 -23 48 -17 122 -55 152 -78 53 -39 363
-348 428 -425 33 -40 62 -72 65 -72 3 0 22 -15 42 -33 21 -19 59 -51 85 -72
26 -22 71 -61 98 -88 28 -27 60 -53 71 -58 18 -6 132 -162 142 -194 2 -5 -1
-3 -7 5 -5 8 -13 11 -18 7 -7 -8 37 -97 63 -128 8 -8 14 -24 14 -34 0 -17 -1
-17 -19 -1 -18 16 -19 16 -24 -11 -3 -15 -2 -30 1 -33 9 -6 8 -42 0 -55 -4 -6
-2 -28 4 -50 8 -32 6 -55 -10 -117 -16 -62 -17 -78 -7 -78 21 0 42 36 67 118
27 89 70 144 125 160 24 7 84 9 168 5 128 -5 131 -5 180 23 116 64 129 68 191
67 53 -1 74 -7 161 -52 93 -48 113 -64 254 -204 99 -98 155 -147 157 -137 1 9
-18 63 -43 120 -25 58 -55 129 -67 159 -11 30 -38 88 -59 130 -22 41 -39 84
-39 94 0 10 -7 31 -15 45 -16 30 -61 136 -105 252 -40 103 -106 250 -119 263
-6 6 -11 17 -11 24 0 18 -64 138 -96 180 -13 17 -24 35 -24 38 0 11 -132 197
-199 280 -77 95 -191 208 -281 278 -36 28 -94 74 -130 103 -144 114 -197 147
-437 270 -115 58 -229 108 -305 133 -130 42 -346 86 -388 79 -27 -5 -23 -7 40
-27 33 -10 32 -10 -18 -6 -62 4 -188 -17 -232 -40 -47 -24 -35 0 14 29 25 15
48 31 51 36 10 17 -76 10 -135 -10z m229 -134 c-10 -9 -79 -14 -79 -5 0 5 19
9 42 9 23 0 39 -2 37 -4z m321 -27 c52 -11 121 -21 152 -22 31 -1 60 -6 65
-11 4 -5 -3 -6 -17 -2 -15 4 -12 0 10 -10 65 -30 95 -47 145 -79 28 -17 65
-37 83 -44 17 -8 32 -20 32 -28 0 -10 6 -13 16 -9 9 3 28 -3 44 -14 15 -11 31
-20 36 -20 15 0 74 -52 69 -60 -3 -5 3 -15 13 -22 45 -32 165 -150 137 -135
-16 9 -46 30 -65 48 -34 30 -99 78 -130 93 -17 9 75 -82 133 -132 21 -17 33
-32 27 -32 -16 0 -12 -31 7 -52 9 -10 14 -20 11 -23 -3 -3 -27 19 -55 50 -28
30 -48 57 -45 60 3 3 -1 5 -10 5 -8 0 -25 8 -36 19 -25 21 -31 41 -7 21 9 -7
18 -10 21 -7 3 2 -27 36 -65 73 -71 69 -86 92 -54 80 15 -6 15 -4 -2 14 -10
11 -22 20 -26 20 -4 0 -27 13 -51 28 -59 39 -205 96 -308 121 -54 12 -142 22
-238 26 -132 5 -167 3 -263 -15 -111 -22 -159 -21 -78 0 114 30 210 70 170 70
-7 0 -10 4 -7 8 8 14 186 2 286 -19z m-430 11 c-8 -5 -19 -10 -25 -10 -5 0 -3
5 5 10 8 5 20 10 25 10 6 0 3 -5 -5 -10z m804 -81 c66 -33 144 -78 171 -99 28
-20 64 -46 80 -56 66 -42 255 -192 255 -204 0 -4 15 -14 33 -21 17 -7 69 -49
113 -93 101 -101 144 -136 164 -136 20 0 82 -59 77 -74 -3 -6 2 -17 9 -24 8
-7 14 -9 14 -5 0 4 12 -5 26 -20 14 -16 23 -31 20 -34 -3 -4 11 -36 31 -72 20
-36 45 -83 55 -103 22 -45 33 -49 24 -10 -4 18 -3 22 3 12 4 -8 11 -33 14 -56
4 -22 27 -82 52 -133 25 -50 45 -96 45 -102 0 -5 8 -24 17 -42 9 -18 38 -107
63 -200 26 -92 49 -164 53 -160 4 3 6 -5 5 -18 -1 -13 4 -46 11 -72 8 -26 11
-50 9 -53 -12 -11 -83 147 -104 231 -40 157 -99 295 -176 408 -21 32 -43 68
-49 80 -31 72 -163 252 -255 351 -45 47 -84 86 -88 86 -4 0 -56 50 -117 111
-61 61 -104 107 -97 103 32 -20 83 -56 88 -62 3 -4 22 -16 43 -26 21 -11 54
-38 73 -60 52 -61 88 -96 98 -96 20 0 -160 190 -214 224 -19 13 -50 37 -69 55
-18 17 -37 29 -42 26 -10 -7 -49 16 -49 29 0 5 9 1 20 -9 11 -10 20 -14 20 -9
0 15 -158 145 -255 211 -49 33 -142 88 -205 121 -149 80 -124 80 34 1z m-13
-147 c-7 -2 -18 1 -23 6 -8 8 -4 9 13 5 13 -4 18 -8 10 -11z m74 -4 c38 -19
58 -38 40 -38 -12 0 -84 40 -90 50 -9 15 -1 13 50 -12z m-1887 5 c-10 -2 -26
-2 -35 0 -10 3 -2 5 17 5 19 0 27 -2 18 -5z m219 -69 c-3 -3 -12 -4 -19 -1 -8
3 -5 6 6 6 11 1 17 -2 13 -5z m63 -14 c18 -12 2 -12 -25 0 -13 6 -15 9 -5 9 8
0 22 -4 30 -9z m1154 -74 c39 -24 77 -46 85 -48 7 -2 25 -14 40 -27 14 -12 40
-30 57 -40 18 -9 71 -44 118 -78 47 -35 92 -63 98 -63 6 0 -9 21 -35 47 -26
26 -47 50 -47 55 0 11 18 10 25 -2 4 -6 10 -8 15 -5 5 3 26 -16 47 -42 26 -32
34 -48 25 -51 -9 -3 -2 -14 20 -32 18 -15 30 -31 26 -35 -4 -5 -14 -2 -23 5
-28 24 -15 2 21 -34 49 -49 36 -57 -19 -12 -48 39 -71 48 -42 16 22 -24 18
-25 -21 -5 -16 8 -47 37 -69 63 -22 27 -55 60 -74 73 -18 13 -54 42 -80 65
-25 22 -92 73 -148 113 -57 39 -103 74 -103 76 0 11 17 3 84 -39z m602 -7 c4
-8 1 -8 -14 0 -12 6 -24 16 -28 22 -4 8 -1 8 14 0 12 -6 24 -16 28 -22z m-659
-36 c32 -26 67 -56 78 -66 11 -11 49 -39 85 -63 111 -73 294 -274 250 -274 -6
0 -10 5 -10 11 0 10 -123 152 -170 195 -14 13 -68 54 -119 90 -86 61 -193 154
-178 154 3 0 32 -21 64 -47z m644 -10 c18 -20 19 -23 4 -13 -32 24 -47 40 -37
40 4 0 19 -12 33 -27z m-727 -11 c28 -16 62 -32 76 -35 14 -4 60 -41 104 -82
43 -42 99 -87 125 -102 48 -28 81 -59 81 -77 0 -5 -17 6 -37 26 -34 32 -123
86 -123 74 0 -3 35 -30 78 -61 61 -44 345 -310 307 -287 -18 10 -179 151 -210
183 -29 31 -130 102 -210 149 -45 26 -44 25 75 -86 87 -80 140 -140 140 -155
0 -16 -75 44 -121 97 -101 113 -216 219 -293 270 -44 29 -85 57 -91 61 -5 5
-21 16 -35 26 -22 15 -22 17 -5 17 19 0 132 -60 183 -96 12 -9 22 -12 22 -8 0
5 -29 29 -65 53 -58 39 -78 61 -58 61 3 0 29 -13 57 -28z m618 -86 c10 3 18 1
18 -4 0 -11 90 -58 104 -54 10 3 56 -49 56 -64 0 -15 -28 -13 -34 3 -3 7 -11
13 -18 13 -9 0 -9 -3 2 -10 23 -14 5 -23 -20 -10 -18 10 -24 9 -32 -1 -7 -11
-8 -9 -6 5 2 13 -10 29 -37 47 -47 33 -66 37 -40 9 16 -18 16 -20 2 -15 -16 7
-127 137 -127 150 0 3 26 -12 57 -35 37 -26 63 -38 75 -34z m-1220 42 c-7 -7
-12 -8 -12 -2 0 14 12 26 19 19 2 -3 -1 -11 -7 -17z m1033 -8 c10 -11 16 -20
13 -20 -3 0 -13 9 -23 20 -10 11 -16 20 -13 20 3 0 13 -9 23 -20z m365 -12 c0
-6 -6 -5 -15 2 -8 7 -15 14 -15 16 0 2 7 1 15 -2 8 -4 15 -11 15 -16z m-120
-18 c13 -8 13 -10 -2 -10 -9 0 -20 5 -23 10 -8 13 5 13 25 0z m372 -125 c6
-12 -5 -5 -26 14 -20 19 -36 39 -36 44 0 12 48 -33 62 -58z m-387 25 c3 -5 1
-10 -4 -10 -6 0 -11 5 -11 10 0 6 2 10 4 10 3 0 8 -4 11 -10z m-535 -113 c0 6
-4 15 -10 18 -5 3 -10 11 -10 18 0 6 17 -5 38 -24 20 -20 60 -54 89 -78 29
-23 55 -52 59 -64 10 -33 46 -83 101 -141 27 -28 56 -63 66 -78 22 -36 -108
95 -152 152 -43 55 -123 136 -174 174 -21 16 -47 43 -58 60 -16 24 -13 21 15
-9 19 -22 35 -35 36 -28z m730 8 c0 -5 -9 1 -20 15 -11 14 -20 30 -20 35 0 6
9 -1 20 -15 11 -14 20 -29 20 -35z m-217 -208 c62 -56 137 -120 167 -142 67
-47 83 -62 50 -45 -41 22 -101 68 -175 135 -38 35 -92 84 -120 109 -27 25 -46
46 -42 46 4 0 58 -46 120 -103z m-2822 -983 c70 -66 118 -110 135 -124 11 -8
38 -31 61 -49 39 -31 41 -35 25 -47 -16 -12 -16 -13 3 -14 18 -1 17 -3 -9 -24
l-28 -23 56 -38 c98 -65 86 -69 -67 -25 -58 17 -112 30 -121 30 -9 0 -16 4
-16 10 0 5 -6 7 -14 4 -8 -3 -19 3 -25 15 -6 11 -18 18 -25 15 -20 -8 -96 15
-96 29 0 7 -7 3 -15 -7 -14 -19 -15 -18 -14 10 1 58 33 218 50 250 16 31 61
25 100 -12z m273 -240 c9 -24 2 -26 -12 -4 -7 11 -8 20 -3 20 5 0 12 -7 15
-16z m-216 -122 c12 -8 32 -64 32 -89 0 -18 -30 -16 -52 4 -11 10 -18 30 -18
55 0 38 11 47 38 30z m-138 -94 c0 -17 -10 -6 -25 25 l-16 32 20 -25 c11 -14
21 -28 21 -32z m88 27 c14 -31 15 -35 3 -35 -5 0 -14 14 -20 30 -12 36 1 40
17 5z m352 -185 c0 -16 -12 -40 -21 -40 -12 0 -31 39 -24 49 6 11 45 2 45 -9z
m-150 -88 c0 -12 -3 -12 -15 -2 -8 7 -15 22 -15 34 1 21 1 21 15 2 8 -11 15
-26 15 -34z"/>
<path d="M7660 7830 c0 -5 5 -10 10 -10 6 0 10 5 10 10 0 6 -4 10 -10 10 -5 0
-10 -4 -10 -10z"/>
<path d="M7730 7780 c0 -6 7 -10 15 -10 8 0 15 2 15 4 0 2 -7 6 -15 10 -8 3
-15 1 -15 -4z"/>
<path d="M7362 7560 c7 -10 14 -18 15 -16 6 6 -9 36 -18 36 -5 0 -4 -9 3 -20z"/>
<path d="M6115 7650 c3 -5 8 -10 11 -10 2 0 4 5 4 10 0 6 -5 10 -11 10 -5 0
-7 -4 -4 -10z"/>
<path d="M6800 6077 c-14 -14 -441 -67 -542 -67 -40 0 -102 -5 -138 -11 -36
-6 -79 -12 -95 -13 -40 -2 -103 -53 -111 -89 -3 -16 -15 -49 -26 -74 -17 -38
-18 -49 -7 -75 13 -33 3 -33 139 -5 42 9 114 21 160 26 47 6 132 22 190 35 98
23 146 30 408 56 150 15 197 12 297 -15 50 -13 132 -35 184 -49 98 -27 151
-33 151 -16 0 6 7 10 15 10 9 0 12 6 8 18 -5 14 -3 15 8 5 7 -7 29 -12 48 -11
l36 1 -34 4 c-19 3 -52 19 -75 38 -23 18 -128 77 -234 130 l-192 98 -93 5
c-50 2 -94 2 -97 -1z m-860 -188 c-14 -26 -18 -24 -12 6 2 14 8 22 13 19 5 -3
5 -14 -1 -25z m-2 -94 c-6 -14 -13 -23 -15 -21 -5 5 15 46 22 46 3 0 -1 -11
-7 -25z"/>
<path d="M7648 5938 c-25 -24 -70 -81 -101 -128 -30 -47 -73 -100 -96 -118
-22 -18 -65 -66 -95 -106 -40 -54 -61 -74 -78 -75 -49 -2 -154 -17 -165 -24
-6 -4 -14 -3 -18 3 -3 5 -19 10 -35 10 -16 0 -32 5 -35 10 -3 6 -20 10 -36 10
-20 0 -39 9 -55 27 -14 15 -22 19 -18 10 5 -14 0 -17 -28 -17 -19 0 -57 6 -84
14 -27 8 -78 17 -114 20 l-65 6 53 -25 c49 -23 52 -26 41 -47 -15 -30 -50 -68
-62 -68 -9 0 -7 16 9 70 l7 25 -31 -29 c-30 -28 -32 -29 -51 -12 -18 16 -20
16 -32 -1 -10 -13 -26 -18 -54 -17 -38 1 -40 3 -38 30 1 16 -1 22 -4 14 -11
-28 -38 -39 -80 -37 -33 3 -43 0 -44 -12 0 -14 -1 -14 -6 -1 -2 8 -7 22 -10
30 -3 10 -9 6 -18 -15 -9 -21 -14 -24 -14 -12 -1 10 -7 17 -13 14 -7 -2 -12
-12 -12 -21 1 -9 -2 -16 -7 -16 -14 0 -49 38 -49 54 0 7 9 16 20 19 12 3 20
14 20 25 0 55 286 77 513 39 59 -10 114 -20 122 -24 9 -3 15 1 15 9 0 45 -447
78 -595 44 -98 -23 -172 -62 -223 -117 -61 -66 -51 -80 28 -40 20 10 50 22 68
26 28 6 32 4 32 -14 0 -12 -6 -21 -13 -21 -12 0 -94 -39 -164 -78 -19 -11 -32
-32 -19 -32 2 0 49 -9 105 -21 57 -11 105 -18 108 -16 2 3 -1 15 -7 28 -11 19
-9 24 11 40 20 15 88 39 123 43 4 1 10 -25 12 -56 6 -100 41 -144 125 -157 68
-11 142 0 170 25 12 10 30 38 41 62 10 23 22 42 26 42 4 -1 18 -10 31 -20 17
-15 22 -26 17 -45 -5 -18 -2 -25 9 -25 30 0 14 -17 -36 -39 -28 -12 -49 -25
-45 -28 10 -10 115 -9 109 1 -4 5 3 7 15 4 15 -4 22 -2 22 9 0 8 13 20 29 26
16 6 32 19 34 29 4 12 15 18 35 18 16 0 44 11 63 24 90 65 272 156 286 143 3
-4 1 -64 -6 -134 -15 -167 -14 -235 3 -324 8 -41 18 -118 21 -171 4 -54 11
-100 16 -104 12 -7 12 -150 -1 -172 -5 -9 -16 -63 -24 -120 -12 -82 -23 -120
-55 -184 -22 -44 -37 -86 -34 -94 3 -8 -1 -14 -11 -14 -21 0 -23 -68 -2 -76
26 -10 10 -180 -27 -279 -17 -48 -84 -194 -98 -215 -5 -8 -12 -23 -15 -32 -4
-10 -10 -18 -15 -18 -5 0 -9 -9 -9 -20 0 -11 -7 -23 -15 -26 -8 -4 -15 -10
-15 -15 0 -5 -16 -25 -35 -43 -19 -19 -35 -39 -35 -45 0 -6 -7 -11 -15 -11 -7
0 -18 -6 -22 -14 -4 -7 -24 -21 -44 -30 -20 -9 -45 -25 -55 -34 -11 -9 -38
-29 -61 -45 -24 -15 -43 -32 -43 -37 0 -6 -6 -10 -14 -10 -7 0 -19 -7 -26 -15
-7 -8 -16 -13 -20 -10 -4 3 -10 -1 -13 -8 -4 -10 -84 -53 -227 -120 -19 -9
-42 -21 -50 -26 -8 -5 -53 -27 -100 -50 -47 -23 -92 -46 -100 -50 -8 -5 -39
-21 -69 -36 -30 -15 -62 -31 -70 -35 -101 -51 -143 -70 -151 -70 -6 0 -29 -9
-53 -19 -47 -22 -72 -29 -113 -36 -16 -3 -78 -14 -139 -26 -115 -22 -99 -22
-376 5 -86 9 -171 42 -244 96 -58 42 -155 148 -185 200 -25 43 -60 119 -60
129 0 4 -9 16 -20 26 -11 10 -17 22 -14 26 3 5 -2 12 -10 15 -9 3 -16 12 -16
20 0 7 -6 17 -14 21 -14 9 -122 273 -156 386 -12 38 -27 99 -35 135 -7 37 -21
103 -31 147 -10 44 -19 101 -19 127 0 26 -4 44 -9 40 -5 -3 -7 2 -3 11 3 9 2
19 -3 22 -6 4 -10 16 -9 28 1 20 2 20 9 -3 8 -24 8 -24 9 -2 1 12 5 22 10 22
5 0 7 19 5 43 -3 31 -2 37 5 22 8 -17 10 -14 10 18 1 42 13 47 35 16 9 -13 21
-19 30 -16 20 8 20 21 1 37 -8 7 -15 23 -15 36 0 13 -5 24 -11 24 -8 0 -8 4 1
15 9 11 8 31 -4 91 -9 42 -16 88 -16 102 0 23 -10 61 -30 117 -14 39 -28 91
-40 145 -25 122 -32 145 -43 152 -9 6 -8 11 3 18 13 8 12 10 -2 10 -20 0 -25
20 -5 21 6 0 3 4 -8 8 -18 7 -19 16 -16 92 2 64 0 81 -9 72 -8 -7 -14 -75 -19
-195 -5 -146 -3 -211 11 -323 9 -77 20 -185 24 -240 7 -104 3 -128 -66 -420
-33 -140 -64 -324 -75 -440 -4 -38 -12 -92 -19 -120 -13 -49 -15 -51 -77 -77
-35 -15 -89 -34 -119 -43 -30 -9 -76 -30 -101 -46 -49 -31 -289 -270 -289
-288 0 -31 48 -4 121 70 44 44 110 103 146 130 78 60 195 120 211 110 15 -9
-14 -100 -34 -108 -18 -7 -18 -33 0 -33 24 0 28 -33 24 -223 -1 -100 1 -188 6
-196 6 -9 5 -12 -1 -8 -6 4 -10 -35 -11 -106 -1 -62 -4 -137 -7 -167 l-4 -55
13 45 c8 25 46 163 85 306 39 144 76 274 82 290 10 26 12 27 18 10 6 -16 9
-14 24 15 14 29 17 30 17 12 0 -32 13 -29 28 6 7 16 20 32 28 35 12 5 14 -3 8
-44 -6 -49 1 -61 23 -39 13 13 5 -37 -31 -178 -25 -99 -34 -187 -18 -167 5 5
19 45 32 89 22 70 50 141 50 124 0 -19 -42 -166 -59 -203 -21 -48 -39 -142
-22 -115 5 8 19 46 29 85 11 38 32 94 46 124 l27 55 -7 -65 c-6 -60 -5 -64 10
-45 8 11 16 26 16 33 0 6 7 12 15 12 18 0 69 106 85 178 7 29 18 59 26 67 8 7
14 24 14 37 0 13 5 30 11 38 9 12 10 10 6 -8 -6 -24 10 -82 21 -82 4 0 8 -42
8 -92 2 -103 18 -256 29 -266 7 -7 3 66 -11 198 -3 30 -1 66 4 80 9 23 10 21
17 -23 5 -30 14 -51 25 -57 10 -5 21 -26 25 -46 9 -50 35 -114 46 -114 5 0 9
12 10 28 1 36 35 -61 99 -283 69 -238 117 -363 176 -455 38 -59 113 -160 119
-160 6 0 -50 103 -77 142 -13 18 -17 36 -13 49 l7 21 12 -20 c6 -11 65 -87
131 -168 152 -188 231 -297 323 -444 25 -39 25 -6 1 42 -20 40 -103 165 -252
384 -60 86 -84 130 -122 219 -45 104 -44 98 -23 120 20 20 20 20 14 -1 -6 -20
-4 -21 25 -15 27 5 35 14 47 51 23 68 45 110 59 110 7 0 13 5 13 11 0 6 6 9
14 6 8 -3 20 1 26 8 8 9 21 13 36 9 17 -5 24 -2 24 9 0 35 37 79 85 104 28 14
57 32 66 39 25 22 131 74 151 74 10 0 18 3 18 8 0 15 55 32 103 32 33 0 68 9
111 30 35 17 76 32 92 34 45 6 82 23 110 51 14 14 32 25 40 25 8 0 22 4 32 9
44 23 193 81 247 96 33 9 70 22 82 27 12 6 34 8 49 5 19 -3 32 0 39 10 16 21
52 1 61 -32 3 -13 16 -31 29 -39 20 -13 22 -21 17 -63 -2 -26 -11 -61 -19 -76
-7 -15 -11 -31 -8 -36 2 -5 -2 -11 -10 -15 -8 -3 -15 -16 -15 -28 0 -25 -26
-106 -39 -123 -5 -5 -23 -37 -41 -70 -41 -75 -83 -124 -146 -172 -27 -21 -58
-45 -68 -55 -11 -10 -23 -18 -28 -18 -4 0 -8 -4 -8 -10 0 -18 43 -10 75 15 52
39 171 90 177 76 2 -5 24 -11 51 -14 46 -6 107 -34 107 -49 0 -4 15 -15 33
-24 17 -9 42 -28 55 -42 21 -24 22 -27 5 -33 -15 -5 -13 -7 7 -11 14 -3 33 -9
43 -13 12 -5 17 -2 17 11 1 18 1 18 11 1 8 -13 14 -15 30 -7 11 6 23 8 28 5 5
-3 16 2 24 10 9 8 23 15 31 15 9 0 16 5 16 10 0 14 37 50 44 42 3 -3 6 1 6 9
1 10 3 10 10 -3 7 -12 5 -27 -6 -52 -15 -30 -15 -39 -4 -66 l13 -32 12 23 c7
13 20 49 30 79 10 30 28 82 41 115 12 33 28 89 35 124 10 53 14 60 21 42 4
-12 8 -59 7 -104 l-1 -82 66 -100 c37 -55 70 -104 74 -110 4 -5 12 -20 17 -32
15 -33 86 -113 100 -113 7 0 15 -9 18 -20 4 -17 9 -18 35 -9 16 5 40 21 53 35
12 13 27 24 33 24 5 0 -8 -18 -29 -40 -29 -30 -36 -43 -28 -51 9 -9 31 5 90
58 43 39 130 103 193 142 103 64 215 151 195 151 -4 0 -36 -18 -71 -40 -100
-63 -111 -53 -31 29 28 30 41 47 27 37 -13 -9 -34 -16 -45 -16 -17 0 -16 4 13
31 17 16 32 32 32 35 0 3 -24 -9 -52 -25 -82 -48 -98 -55 -104 -48 -7 7 98
106 169 159 77 58 71 58 -27 1 -11 -7 -28 -13 -36 -13 -8 0 -28 -9 -45 -20
-16 -11 -41 -20 -54 -20 -19 0 -10 13 60 81 46 44 73 74 59 66 -14 -8 -54 -18
-90 -21 l-65 -6 70 64 c39 36 66 65 60 65 -5 0 -19 -6 -29 -14 -11 -8 -28 -15
-37 -15 -23 0 -37 22 -18 28 8 3 47 38 88 79 41 40 78 73 83 73 4 0 8 7 8 15
0 21 -7 19 -59 -19 -33 -24 -51 -32 -61 -26 -12 7 -2 21 45 62 32 29 75 69 95
89 34 35 55 47 150 84 25 10 63 26 85 36 22 10 132 49 245 86 200 66 237 83
255 112 7 12 -5 13 -71 8 -54 -4 -74 -3 -61 4 9 6 17 17 17 25 0 17 -52 14
-270 -16 -144 -21 -334 -45 -412 -54 -29 -3 -48 -2 -48 4 0 6 3 10 8 10 4 1
18 10 31 20 19 17 21 23 11 35 -10 13 -8 19 14 36 35 28 33 39 -8 39 -47 0
-50 11 -10 40 43 33 50 50 19 50 -13 0 -27 -4 -30 -10 -3 -5 -14 -10 -23 -10
-11 0 1 16 33 44 52 46 55 68 8 47 l-28 -12 25 21 c14 11 41 27 60 36 104 47
165 84 172 106 4 16 6 18 7 6 1 -10 3 -18 4 -18 5 0 190 100 196 105 13 13
-212 381 -304 496 -46 58 -74 101 -71 111 2 10 -2 22 -9 28 -8 6 -12 17 -9 25
3 7 1 16 -5 20 -6 3 -11 26 -11 51 0 28 -4 43 -10 39 -5 -3 -10 -1 -10 4 0 6
3 11 8 11 4 0 6 18 4 40 -4 35 -1 41 23 50 34 13 44 13 25 -1 -11 -8 -4 -9 28
-5 40 6 43 5 37 -14 -4 -13 -1 -22 9 -26 9 -3 16 -12 16 -20 0 -8 7 -14 15
-14 8 0 15 -7 15 -15 0 -9 18 -43 40 -77 22 -34 45 -77 51 -97 16 -49 54 -98
168 -218 32 -34 56 -64 54 -67 -4 -4 29 -56 52 -82 6 -6 21 -15 34 -19 21 -6
21 -8 6 -25 -11 -12 -13 -20 -5 -25 5 -3 8 -11 5 -16 -4 -5 3 -9 14 -9 10 0
21 -5 23 -11 2 -7 24 -3 61 11 61 23 75 36 59 52 -8 8 -25 2 -58 -20 -27 -17
-52 -29 -56 -26 -15 9 11 42 39 49 15 3 38 17 50 30 13 12 37 28 53 35 38 16
39 38 3 42 -27 3 -27 4 15 26 57 31 50 46 -21 45 -31 0 -57 1 -57 2 0 2 25 16
56 32 54 27 74 47 60 60 -3 3 -23 -1 -43 -9 -21 -8 -51 -20 -68 -25 -16 -6
-47 -18 -67 -27 -67 -29 -40 -9 72 53 60 34 112 66 116 72 12 20 -5 20 -47 0
-49 -24 -58 -26 -41 -9 19 19 14 30 -10 23 -21 -5 -22 -5 -4 7 91 62 69 72
-45 19 -50 -24 -93 -40 -96 -37 -3 2 28 22 67 43 81 42 128 78 118 88 -3 4
-20 -1 -36 -9 -17 -9 -37 -13 -45 -10 -9 3 -30 -2 -47 -11 -53 -27 -44 -10 10
19 27 15 52 32 56 37 10 17 -4 23 -28 12 -34 -15 -51 6 -24 28 27 22 14 36
-20 20 -23 -10 -30 -9 -50 10 -30 28 -30 37 1 51 14 6 25 17 25 24 0 10 -15
13 -62 10 -54 -3 -59 -2 -43 10 10 8 22 14 27 14 4 0 8 9 8 20 0 29 -39 26
-110 -10 -69 -35 -91 -39 -40 -8 76 46 100 63 100 73 0 5 -5 4 -11 -2 -12 -12
-52 -5 -43 8 3 5 -1 10 -8 10 -7 1 -19 2 -26 3 -7 0 -17 7 -21 15 -6 9 -18 12
-32 8 -14 -4 -32 1 -50 14 -15 10 -30 19 -34 19 -21 0 -164 77 -165 88 0 7 -4
11 -9 8 -5 -4 -11 -2 -13 2 -1 4 -31 25 -66 46 -35 21 -77 51 -95 67 -17 16
-40 29 -50 29 -10 0 -16 4 -13 8 7 11 -101 34 -125 27 -17 -6 -31 4 -68 44
-31 34 -50 48 -57 41 -7 -7 -14 3 -23 28 -7 20 -21 53 -30 72 l-16 35 -5 -75
-5 -75 -28 57 c-16 32 -32 60 -38 63 -38 24 57 -189 105 -234 14 -14 26 -32
26 -42 0 -10 5 -21 10 -24 6 -4 8 -10 6 -14 -7 -11 18 -112 37 -146 9 -16 32
-47 51 -69 47 -52 77 -118 88 -196 15 -102 26 -135 53 -162 15 -15 23 -32 19
-41 -3 -8 -1 -18 5 -22 6 -3 11 -17 11 -30 0 -13 5 -27 10 -30 17 -10 11 -25
-10 -25 -17 0 -19 -5 -14 -25 4 -15 2 -25 -5 -25 -6 0 -11 -6 -11 -14 0 -15
37 -29 45 -17 2 5 21 7 42 5 33 -2 38 -5 35 -25 -1 -12 2 -25 8 -29 6 -4 4
-15 -6 -29 -11 -16 -19 -19 -24 -11 -5 7 -13 3 -24 -14 -10 -16 -26 -26 -40
-26 -14 0 -26 -6 -29 -12 -8 -23 -60 17 -84 63 -30 60 -54 143 -60 209 -3 30
-12 64 -19 75 -8 11 -14 27 -14 36 0 16 -92 202 -112 226 -5 7 -18 46 -28 87
-11 41 -37 109 -59 153 -80 158 -105 255 -115 450 -8 137 9 380 31 447 12 37
37 72 99 138 45 48 103 124 128 167 25 43 59 90 76 105 17 14 27 26 22 26 -5
0 -29 -19 -54 -42z m-842 -429 c51 -13 61 -23 41 -44 -22 -22 -89 -57 -95 -50
-4 3 0 10 8 15 21 13 10 19 -22 13 -16 -3 -28 -12 -28 -20 0 -8 -4 -12 -9 -9
-11 7 37 106 50 106 6 0 30 -5 55 -11z m124 -38 c0 -5 -9 -13 -20 -16 -16 -5
-19 -12 -14 -33 4 -21 3 -24 -5 -12 -10 13 -13 12 -27 -5 -8 -11 -19 -20 -24
-20 -4 0 -12 -3 -16 -7 -10 -10 -24 -10 -24 0 0 4 14 13 31 21 18 8 34 22 36
32 3 11 9 19 14 19 5 0 9 7 9 15 0 8 9 15 20 15 11 0 20 -4 20 -9z m30 -56
c-13 -14 -28 -25 -33 -25 -6 0 3 13 19 29 35 35 47 32 14 -4z m-382 -27 c14
-14 16 -48 3 -48 -6 0 -17 10 -25 22 -22 31 -4 52 22 26z m-403 -18 c3 -5 1
-10 -4 -10 -6 0 -11 5 -11 10 0 6 2 10 4 10 3 0 8 -4 11 -10z m-35 -15 c0 -16
-9 -19 -34 -9 -25 9 -19 24 9 24 16 0 25 -6 25 -15z m320 -82 c0 -3 -9 2 -20
12 -11 10 -20 28 -20 39 0 17 4 15 20 -12 11 -18 20 -35 20 -39z m160 -7 c-19
-18 -70 -32 -70 -19 0 6 15 15 33 21 46 14 53 14 37 -2z m991 -369 c12 -22 12
-22 -10 -3 -11 11 -21 23 -21 28 0 14 19 -1 31 -25z m439 -1494 c0 -9 -52 -35
-58 -29 -2 3 9 11 25 20 33 18 33 18 33 9z m-190 -177 c0 -6 -82 -58 -86 -54
-2 2 15 16 38 31 42 27 48 30 48 23z m-3410 -81 c0 -8 -4 -15 -10 -15 -5 0 -7
7 -4 15 4 8 8 15 10 15 2 0 4 -7 4 -15z m-49 -121 c-10 -33 -24 -79 -31 -103
-6 -23 -14 -41 -17 -38 -3 3 10 51 27 107 18 55 35 99 37 97 2 -3 -5 -31 -16
-63z m-322 -248 c-6 -22 -18 -63 -27 -91 -16 -46 -17 -48 -20 -21 -2 16 1 48
7 70 6 23 13 57 17 76 9 49 16 57 26 31 5 -14 4 -40 -3 -65z m961 -661 c35
-68 53 -111 41 -100 -26 26 -180 321 -195 375 -8 30 69 -108 154 -275z m2347
199 c16 -21 21 -23 17 -9 -4 11 6 3 20 -18 15 -21 31 -35 35 -33 5 3 26 -16
47 -42 60 -73 70 -87 57 -78 -23 13 -14 -5 32 -61 25 -30 45 -65 45 -77 0 -12
5 -27 12 -34 6 -6 8 -15 4 -19 -12 -13 -142 133 -209 234 -82 125 -140 230
-105 192 12 -14 33 -39 45 -55z m-2297 -174 c0 -11 -2 -20 -4 -20 -2 0 -6 9
-9 20 -3 11 -1 20 4 20 5 0 9 -9 9 -20z"/>
<path d="M4735 5530 c3 -5 8 -10 11 -10 2 0 4 5 4 10 0 6 -5 10 -11 10 -5 0
-7 -4 -4 -10z"/>
<path d="M7371 4954 c0 -11 3 -14 6 -6 3 7 2 16 -1 19 -3 4 -6 -2 -5 -13z"/>
<path d="M7322 4665 c0 -16 2 -22 5 -12 2 9 2 23 0 30 -3 6 -5 -1 -5 -18z"/>
<path d="M4484 4130 c2 -25 6 -56 9 -69 11 -43 49 -111 61 -111 7 0 24 -14 37
-32 13 -17 42 -53 64 -79 22 -26 47 -65 54 -86 25 -70 72 -166 103 -211 36
-52 127 -114 201 -136 115 -35 311 -47 407 -25 100 22 262 96 232 106 -7 3
-19 -1 -27 -7 -8 -7 -26 -10 -39 -6 -16 4 -32 -1 -51 -16 l-27 -21 -25 32
c-21 26 -31 31 -61 29 -21 -1 -40 -6 -43 -11 -4 -5 -15 -5 -27 2 -15 8 -23 7
-31 -3 -6 -7 -8 -16 -4 -19 3 -4 1 -7 -5 -7 -7 0 -12 5 -12 11 0 20 -29 39
-59 39 -24 0 -32 5 -37 25 -12 50 -5 53 135 53 93 1 131 -2 131 -10 0 -9 3 -9
12 0 9 9 20 3 48 -27 24 -25 42 -36 50 -31 7 4 26 4 42 -1 22 -6 48 -2 101 17
42 15 114 29 171 34 173 16 147 44 -50 55 -65 4 -135 11 -154 17 -19 6 -108
47 -197 91 -166 81 -173 83 -290 79 -51 -2 -61 -5 -57 -17 8 -20 -32 -21 -43
-1 -4 8 -39 36 -78 61 l-70 47 -117 -7 -117 -7 -28 40 c-18 26 -41 45 -65 53
-42 14 -83 52 -74 68 4 6 -7 22 -24 37 -17 15 -35 41 -40 58 -9 28 -9 27 -6
-14z m553 -505 c51 -4 83 -20 83 -42 0 -13 3 -14 12 -5 7 7 22 12 35 12 18 0
23 -6 23 -25 0 -27 -29 -48 -49 -35 -8 4 -25 1 -41 -8 -23 -14 -31 -14 -44 -3
-9 7 -16 20 -16 27 0 8 -10 14 -22 14 -25 0 -58 27 -58 47 0 8 5 24 12 36 10
20 12 20 18 3 4 -13 18 -19 47 -21z"/>
<path d="M1450 3764 c-45 -32 -51 -48 -16 -42 36 7 32 -5 -9 -28 -42 -22 -43
-50 -2 -46 40 4 33 -4 -25 -34 -67 -33 -67 -33 -45 -49 17 -12 16 -14 -13 -35
-24 -17 -29 -25 -18 -31 7 -5 25 -6 41 -3 39 8 34 -2 -13 -26 -22 -11 -40 -24
-40 -29 0 -13 27 -21 45 -15 24 10 17 -14 -10 -32 -14 -9 -25 -20 -25 -25 0
-23 34 -19 96 10 37 17 69 29 72 26 3 -3 0 -5 -6 -5 -6 0 -31 -17 -55 -37 -24
-21 -53 -43 -63 -49 -31 -19 -5 -36 36 -24 26 7 31 7 22 -2 -18 -18 -14 -28
11 -28 19 0 18 -2 -10 -20 -42 -25 -45 -55 -5 -45 33 8 267 121 304 147 14 10
32 18 40 18 25 -1 -37 -40 -164 -105 -111 -58 -149 -87 -134 -102 9 -9 112 18
165 42 73 34 76 25 4 -16 -56 -32 -73 -46 -73 -61 0 -12 48 -10 70 2 14 7 25
7 39 -1 23 -15 61 -1 131 47 64 44 133 77 215 104 39 12 74 26 79 30 5 5 -5
26 -22 47 -87 107 -159 198 -172 218 -56 84 -127 132 -268 184 -114 42 -140
44 -182 15z"/>
<path d="M4640 3590 c0 -5 5 -10 11 -10 5 0 7 5 4 10 -3 6 -8 10 -11 10 -2 0
-4 -4 -4 -10z"/>
<path d="M4670 3585 c0 -8 7 -15 15 -15 8 0 15 -4 15 -9 0 -5 7 -11 15 -15 25
-9 17 9 -15 32 -24 18 -30 20 -30 7z"/>
<path d="M4590 3585 c0 -3 5 -15 10 -25 8 -15 6 -22 -7 -30 -17 -11 -17 -11 0
-6 9 3 24 9 33 13 13 5 15 2 9 -18 -5 -18 -4 -21 4 -9 16 23 13 57 -6 64 -10
3 -24 9 -30 12 -7 3 -13 3 -13 -1z"/>
<path d="M4660 3530 c0 -6 7 -13 15 -16 8 -4 15 -17 15 -31 0 -22 3 -24 24
-19 21 5 31 -1 61 -41 31 -41 111 -103 132 -103 3 0 14 -6 22 -13 20 -17 53
-29 175 -62 102 -28 164 -30 246 -5 80 24 94 70 21 70 -22 0 -97 14 -168 31
-70 16 -157 34 -193 38 -75 10 -197 61 -207 88 -7 19 -15 28 -46 52 -14 11
-20 11 -33 0 -13 -11 -17 -10 -25 4 -11 18 -39 23 -39 7z"/>
<path d="M1893 3160 c-47 -17 -108 -50 -91 -50 8 0 161 61 167 66 10 9 -28 1
-76 -16z"/>
<path d="M2090 3134 c0 -5 -15 -10 -33 -11 -17 -1 -48 -6 -67 -12 -19 -5 -55
-13 -80 -18 -49 -9 -54 -24 -12 -36 80 -22 146 -12 155 24 3 12 14 19 29 19
13 0 29 5 35 11 8 8 20 6 44 -6 18 -10 65 -21 106 -26 87 -11 123 -27 252
-107 18 -12 5 -52 -17 -52 -9 0 -36 9 -58 19 -49 22 -81 12 -42 -13 69 -45
238 -93 238 -67 0 6 9 11 20 11 23 0 24 4 9 33 -34 63 -149 155 -254 203 -63
29 -163 45 -150 24 6 -10 0 -12 -31 -6 -80 14 -144 19 -144 10z m539 -239 c2
-3 2 -7 -1 -10 -9 -9 -88 26 -82 36 4 8 69 -13 83 -26z"/>
<path d="M2113 2945 c-3 -9 -3 -18 0 -21 9 -9 48 16 42 27 -9 14 -35 11 -42
-6z"/>
<path d="M2110 2900 c-34 -18 -182 -160 -167 -160 20 0 67 34 115 84 41 42 64
57 102 67 27 7 47 16 44 21 -9 14 -57 8 -94 -12z"/>
<path d="M8417 2856 c-62 -26 -73 -33 -66 -41 6 -5 129 52 129 60 0 7 3 8 -63
-19z"/>
<path d="M2370 2788 c-41 -5 -120 -15 -175 -23 -55 -8 -110 -15 -123 -15 -28
0 -179 -57 -188 -71 -13 -22 6 -20 48 4 24 14 86 35 138 48 81 19 124 22 292
23 109 1 198 2 198 3 0 5 -65 30 -90 35 -14 2 -59 1 -100 -4z"/>
<path d="M8089 2734 l-24 -27 33 17 c17 9 32 21 32 26 0 17 -16 11 -41 -16z"/>
<path d="M8025 2690 c-3 -5 -1 -10 4 -10 6 0 11 5 11 10 0 6 -2 10 -4 10 -3 0
-8 -4 -11 -10z"/>
<path d="M8305 2354 c-22 -8 -47 -22 -55 -30 -14 -15 -13 -15 10 -9 28 8 110
55 95 54 -5 0 -28 -7 -50 -15z"/>
<path d="M8173 2299 c-36 -23 -40 -29 -19 -29 8 0 28 11 43 25 34 30 20 32
-24 4z"/>
<path d="M3956 2254 c-4 -14 -5 -28 -3 -31 3 -2 8 8 11 23 4 14 5 28 3 31 -3
2 -8 -8 -11 -23z"/>
<path d="M7973 2229 c-35 -27 -63 -52 -63 -55 0 -3 33 12 73 33 39 21 72 44
72 52 0 27 -20 20 -82 -30z"/>
<path d="M8235 2240 c-3 -6 1 -7 9 -4 18 7 21 14 7 14 -6 0 -13 -4 -16 -10z"/>
<path d="M8138 2208 c-7 -7 -20 -14 -28 -16 -14 -3 -110 -71 -110 -78 0 -9 61
22 138 71 31 20 41 35 23 35 -5 0 -16 -6 -23 -12z"/>
<path d="M3941 2194 c0 -11 3 -14 6 -6 3 7 2 16 -1 19 -3 4 -6 -2 -5 -13z"/>
<path d="M3926 2149 c-2 -8 -16 -50 -30 -94 -14 -44 -39 -125 -54 -180 -48
-164 -155 -447 -201 -528 -12 -21 -19 -43 -15 -48 3 -6 -3 -20 -14 -32 -37
-41 -60 -104 -28 -78 23 20 176 380 235 556 35 105 121 409 116 413 -3 3 -7
-1 -9 -9z"/>
<path d="M7017 1921 c-33 -83 -130 -237 -187 -300 -8 -9 -25 -33 -37 -54 -25
-42 -24 -41 -90 -116 -104 -119 -120 -137 -146 -176 -82 -121 -398 -400 -538
-475 -78 -41 -106 -35 -167 40 -38 46 -207 272 -234 314 -4 6 -10 8 -13 4 -9
-9 52 -114 136 -233 39 -55 74 -109 79 -120 5 -11 18 -33 29 -50 12 -16 21
-44 21 -62 0 -33 35 -103 52 -103 5 0 6 -5 3 -10 -3 -5 -4 -10 -1 -10 7 0 76
149 76 165 0 8 15 25 33 38 295 215 314 230 410 338 46 52 149 160 229 239
193 193 248 271 369 520 34 72 35 77 20 96 -16 20 -17 19 -44 -45z m-1052
-1220 c-3 -12 -11 -21 -16 -21 -10 0 -12 43 -2 54 12 12 25 -11 18 -33z"/>
<path d="M7635 1660 c-16 -11 -24 -20 -17 -20 15 0 72 28 72 35 0 11 -27 4
-55 -15z"/>
<path d="M7704 1650 c-23 -10 -45 -23 -49 -30 -15 -23 7 -23 51 0 83 45 81 67
-2 30z"/>
<path d="M2425 1620 c-7 -11 17 -61 39 -79 18 -15 46 -8 46 11 0 16 -55 78
-69 78 -5 0 -13 -4 -16 -10z m53 -66 c-4 -3 -12 5 -18 18 -12 22 -12 22 6 6
10 -10 15 -20 12 -24z"/>
<path d="M7698 1589 c-36 -18 -50 -39 -28 -39 11 0 90 50 90 56 0 9 -28 2 -62
-17z"/>
<path d="M2482 1500 l-22 -30 28 6 c24 5 34 0 60 -30 18 -20 32 -41 32 -46 0
-6 5 -10 11 -10 6 0 8 9 3 22 -10 33 -67 117 -80 117 -5 1 -20 -12 -32 -29z"/>
<path d="M7691 1521 c-7 -5 -12 -14 -9 -21 2 -7 10 -4 22 9 19 21 12 28 -13
12z"/>
<path d="M2395 1510 c3 -5 8 -10 11 -10 2 0 4 5 4 10 0 6 -5 10 -11 10 -5 0
-7 -4 -4 -10z"/>
<path d="M2572 1352 c-18 -14 -20 -20 -10 -30 23 -23 48 -14 48 18 0 34 -6 36
-38 12z"/>
<path d="M5540 1247 c0 -19 39 -77 52 -77 9 0 -12 43 -36 75 -14 18 -15 18
-16 2z"/>
<path d="M5681 1156 c29 -25 278 -111 349 -119 l45 -6 -55 18 c-30 10 -89 29
-130 41 -41 13 -79 26 -85 30 -5 4 -32 15 -60 25 -27 10 -54 22 -59 26 -6 5
-15 9 -20 9 -6 0 1 -11 15 -24z"/>
<path d="M5927 529 c-7 -26 14 -56 32 -45 15 10 14 20 -7 47 l-19 22 -6 -24z"/>
<path d="M5885 500 c4 -6 11 -8 16 -5 14 9 11 15 -7 15 -8 0 -12 -5 -9 -10z"/>
<path d="M5830 456 c0 -9 5 -16 10 -16 6 0 10 4 10 9 0 6 -4 13 -10 16 -5 3
-10 -1 -10 -9z"/>
</g>
</svg>
